# xmcd
#
# Track frame offsets:
#	150
#	16331
#	30960
#	45356
#	60614
#	73511
#	86177
#	99452
#	112476
#	126447
#	147574
#	154836
#	169108
#	188169
#	204040
#	221543
#	243164
#	259405
#	279586
#	300808
# Disc length: 4237 seconds
# Revision: 1
# Processed by: cddbd v1.5.1PL0 Copyright (c) Steve Scherf et al.
#
# Submitted via: libkcddb 0.10
#
DISCID=19108b14
DTITLE=Luis Miguel - Un Sol - Extras
DYEAR=1900
DGENRE=Unknown
TTITLE0=Dos enamorados
TTITLE1=Amor de escuela
TTITLE2=Tomemos los patines
TTITLE3=Hay un algo
TTITLE4=Lo que me gusta
TTITLE5=Balada para mi abuela
TTITLE6=Mentira
TTITLE7=El tiempo
TTITLE8=Adolescente sonnador
TTITLE9=Parecido Luis Miguel
TTITLE10=Cielito lindo
TTITLE11=Come fly with me
TTITLE12=De que manera te olvido
TTITLE13=Echame a mi la culpa
TTITLE14=Mi ciudad (INEDITA)
TTITLE15=Poutpourri
TTITLE16=Ragazzi dioggi-il ciello
TTITLE17=Suenna
TTITLE18=Todo para ti
TTITLE19=Yo no canto por cantar
EXTD=
EXTT0=
EXTT1=
EXTT2=
EXTT3=
EXTT4=
EXTT5=
EXTT6=
EXTT7=
EXTT8=
EXTT9=
EXTT10=
EXTT11=
EXTT12=
EXTT13=
EXTT14=
EXTT15=
EXTT16=
EXTT17=
EXTT18=
EXTT19=
PLAYORDER=
